<?xml version="1.0" encoding="utf-8"?>
<!-- Generator: Adobe Illustrator 16.0.0, SVG Export Plug-In . SVG Version: 6.00 Build 0)  -->
<!DOCTYPE svg PUBLIC "-//W3C//DTD SVG 1.1//EN" "http://www.w3.org/Graphics/SVG/1.1/DTD/svg11.dtd">
<svg version="1.1" xmlns="http://www.w3.org/2000/svg" xmlns:xlink="http://www.w3.org/1999/xlink" x="0px" y="0px" width="862px"
        height="529px" viewBox="0 0 862 529" enable-background="new 0 0 862 529" xml:space="preserve">
    <g id="Flower">
        <g id="_x30_leaf_white">
            <polygon id="_x30_leaf_white" opacity="0.5" fill="#613A43" points="431.721,38.021 306.803,264.251 431.721,500.207 556.64,264.251"/>
        </g>
        <g id="_x30_leaf">
            <polygon id="_x30_leaf" opacity="0.75" fill="#613A43" points="151.404,130.96 189.293,386.603 431.721,498.441 432.248,254.192"/>
        </g>
        <g id="_x33_leaf_white">
            <polygon id="_x33_leaf_white" opacity="0.5" fill="#613A43" points="431.721,38.021 306.803,264.251 431.721,500.207 556.64,264.251"/>
        </g>
        <g id="_x34_leaf">
            <polygon id="_x34_leaf" opacity="0.75" fill="#613A43" points="709.679,129.872 432.248,254.192 432.248,499.527 673.796,385.798"/>
        </g>
        <g id="_x31_leaf">
            <polygon id="_x31_leaf" opacity="0.75" fill="#994A62" points="256.234,72.021 226.668,328.755 431.887,499.527 457.76,233.802"/>
        </g>
        <g id="_x32_leaf">
            <polygon id="_x32_leaf" opacity="0.6" fill="#E9DCCD" points="431.721,38.021 306.803,264.251 431.721,500.207 556.64,264.251"/>
        </g>
        <g id="_x33_leaf">
            <polygon id="_x33_leaf" opacity="0.75" fill="#8F4A5E" points="604.054,71.343 403.803,234.694 431.748,500.207 635.628,327.837"/>
        </g>
    </g>
    <g id="The_Botanists">
        <g opacity="0.75">
            <path fill="#613A43" d="M89.935,243.69c26.4,0,40.561,14.88,40.561,42.481v3.12c0,18.72-5.521,29.761-18.96,34.321v0.48
                c15.84,4.8,22.561,17.28,22.561,39.361v5.76c0,27.601-14.88,42.481-42.241,42.481H54.414V243.69H89.935z M79.854,313.052h7.92
                c12.24,0,17.28-6.24,17.28-20.401v-5.52c0-13.68-5.04-19.92-16.08-19.92h-9.12V313.052z M79.854,388.174h11.04
                c12.24,0,17.76-6.48,17.76-20.641v-9.36c0-14.88-5.52-21.601-18.96-21.601h-9.84V388.174z"/>
            <path fill="#613A43" d="M234.172,283.771v87.842c0,26.4-15.6,42.481-41.041,42.481c-25.44,0-41.041-16.081-41.041-42.481v-87.842
                c0-26.401,15.601-42.481,41.041-42.481C218.572,241.291,234.172,257.371,234.172,283.771z M177.531,284.011v87.362
                c0,12.48,5.52,19.201,15.6,19.201c10.081,0,15.601-6.721,15.601-19.201v-87.362c0-12.48-5.52-19.2-15.601-19.2
                C183.051,264.811,177.531,271.531,177.531,284.011z"/>
            <path fill="#613A43" d="M299.451,267.691v144.003H274.01V267.691h-27.121v-24h79.682v24H299.451z"/>
            <path fill="#613A43" d="M389.691,411.694l-5.52-38.161h-28.081l-5.521,38.161h-25.44L354.17,243.69h32.401l29.041,168.004H389.691
                z M359.451,350.493h21.36l-10.32-70.802h-0.72L359.451,350.493z"/>
            <path fill="#613A43" d="M491.689,411.694l-33.361-111.362h-0.48v111.362h-24V243.69h28.321l30.001,100.083h0.479V243.69h24.001
                v168.004H491.689z"/>
            <path fill="#613A43" d="M544.009,411.694V243.69h25.44v168.004H544.009z"/>
            <path fill="#613A43" d="M664.487,278.971v4.32l-24.481,2.4v-6.24c0-9.6-4.56-14.64-12.96-14.64s-12.96,5.04-12.96,14.64v2.16
                c0,9.84,4.32,18.24,21.36,32.641c23.28,19.681,31.921,33.601,31.921,53.761v8.4c0,24-14.16,37.681-39.361,37.681
                c-25.2,0-39.36-13.681-39.36-37.681v-11.28l24.48-2.4v12c0,10.561,4.8,15.841,14.4,15.841c9.6,0,14.4-5.28,14.4-15.841v-5.52
                c0-10.56-5.041-18.96-22.081-33.361c-23.28-19.68-31.2-33.601-31.2-53.281v-3.6c0-24,13.68-37.681,37.921-37.681
                C650.807,241.291,664.487,254.971,664.487,278.971z"/>
            <path fill="#613A43" d="M723.765,267.691v144.003h-25.44V267.691h-27.12v-24h79.682v24H723.765z"/>
            <path fill="#613A43" d="M834.406,278.971v4.32l-24.481,2.4v-6.24c0-9.6-4.56-14.64-12.96-14.64s-12.96,5.04-12.96,14.64v2.16
                c0,9.84,4.32,18.24,21.36,32.641c23.28,19.681,31.921,33.601,31.921,53.761v8.4c0,24-14.16,37.681-39.361,37.681
                c-25.2,0-39.36-13.681-39.36-37.681v-11.28l24.48-2.4v12c0,10.561,4.8,15.841,14.4,15.841c9.6,0,14.4-5.28,14.4-15.841v-5.52
                c0-10.56-5.04-18.96-22.081-33.361c-23.28-19.68-31.2-33.601-31.2-53.281v-3.6c0-24,13.68-37.681,37.921-37.681
                C820.726,241.291,834.406,254.971,834.406,278.971z"/>
            <path fill="#613A43" d="M398.05,178.467v57.596h-10.175v-57.596h-10.847v-9.6h31.87v9.6H398.05z"/>
            <path fill="#613A43" d="M437.601,236.063v-29.278h-12.095v29.278H415.33v-67.195h10.175v28.318h12.095v-28.318h10.175v67.195
                H437.601z"/>
            <path fill="#613A43" d="M468.897,178.275v19.006h14.878v9.407h-14.878v19.967h18.43v9.407h-28.605v-67.195h28.605v9.408H468.897z"
                />
            <line fill="#613A43" x1="424.421" y1="440.527" x2="836.066" y2="440.527"/>
            <polygon fill="#613A43" points="424.421,437.527 836.066,440.527 424.421,443.527"/>
            <line fill="#613A43" x1="438.46" y1="440.527" x2="26.067" y2="440.527"/>
            <polygon fill="#613A43" points="438.46,443.527 26.067,440.527 438.46,437.527"/>
            <line fill="#613A43" x1="363.726" y1="219.676" x2="26.067" y2="219.676"/>
            <polygon fill="#613A43" points="363.726,222.676 26.067,219.676 363.726,216.676"/>
            <line fill="#613A43" x1="507.152" y1="219.676" x2="846.066" y2="219.676"/>
            <polygon fill="#613A43" points="507.152,216.676 846.066,219.676 507.152,222.676"/>
        </g>
        <g>
            <g>
                <g>
                    <g opacity="0.85">
                        <path fill="#849974" d="M89.234,242.99c26.4,0,40.561,14.88,40.561,42.481v3.12c0,18.72-5.521,29.761-18.96,34.321v0.48
                            c15.84,4.8,22.561,17.28,22.561,39.361v5.76c0,27.601-14.88,42.481-42.241,42.481H53.713V242.99H89.234z M79.154,312.352h7.92
                            c12.24,0,17.28-6.24,17.28-20.401v-5.52c0-13.68-5.04-19.92-16.08-19.92h-9.12V312.352z M79.154,387.474h11.04
                            c12.24,0,17.76-6.48,17.76-20.641v-9.36c0-14.88-5.52-21.601-18.96-21.601h-9.84V387.474z"/>
                        <path fill="#849974" d="M233.472,283.071v87.842c0,26.4-15.6,42.481-41.041,42.481c-25.44,0-41.041-16.081-41.041-42.481
                            v-87.842c0-26.401,15.601-42.481,41.041-42.481C217.872,240.59,233.472,256.67,233.472,283.071z M176.831,283.311v87.362
                            c0,12.48,5.52,19.201,15.6,19.201c10.081,0,15.601-6.721,15.601-19.201v-87.362c0-12.48-5.52-19.2-15.601-19.2
                            C182.351,264.111,176.831,270.831,176.831,283.311z"/>
                        <path fill="#849974" d="M298.75,266.991v144.003H273.31V266.991h-27.121v-24h79.682v24H298.75z"/>
                        <path fill="#849974" d="M388.991,410.994l-5.52-38.161h-28.081l-5.521,38.161h-25.44L353.47,242.99h32.401l29.041,168.004
                            H388.991z M358.75,349.793h21.36l-10.32-70.802h-0.72L358.75,349.793z"/>
                        <path fill="#849974" d="M490.989,410.994l-33.361-111.362h-0.48v111.362h-24V242.99h28.321l30.001,100.083h0.479V242.99h24.001
                            v168.004H490.989z"/>
                        <path fill="#849974" d="M543.309,410.994V242.99h25.44v168.004H543.309z"/>
                        <path fill="#849974" d="M663.787,278.271v4.32l-24.481,2.4v-6.24c0-9.6-4.56-14.64-12.96-14.64s-12.96,5.04-12.96,14.64v2.16
                            c0,9.84,4.32,18.24,21.36,32.641c23.28,19.681,31.921,33.601,31.921,53.761v8.4c0,24-14.16,37.681-39.361,37.681
                            c-25.2,0-39.36-13.681-39.36-37.681v-11.28l24.48-2.4v12c0,10.561,4.8,15.841,14.4,15.841c9.6,0,14.4-5.28,14.4-15.841v-5.52
                            c0-10.56-5.041-18.96-22.081-33.361c-23.28-19.68-31.2-33.601-31.2-53.281v-3.6c0-24,13.68-37.681,37.921-37.681
                            C650.106,240.59,663.787,254.271,663.787,278.271z"/>
                        <path fill="#849974" d="M723.064,266.991v144.003h-25.44V266.991h-27.12v-24h79.682v24H723.064z"/>
                        <path fill="#849974" d="M833.706,278.271v4.32l-24.481,2.4v-6.24c0-9.6-4.56-14.64-12.96-14.64s-12.96,5.04-12.96,14.64v2.16
                            c0,9.84,4.32,18.24,21.36,32.641c23.28,19.681,31.921,33.601,31.921,53.761v8.4c0,24-14.16,37.681-39.361,37.681
                            c-25.2,0-39.36-13.681-39.36-37.681v-11.28l24.48-2.4v12c0,10.561,4.8,15.841,14.4,15.841c9.6,0,14.4-5.28,14.4-15.841v-5.52
                            c0-10.56-5.04-18.96-22.081-33.361c-23.28-19.68-31.2-33.601-31.2-53.281v-3.6c0-24,13.68-37.681,37.921-37.681
                            C820.025,240.59,833.706,254.271,833.706,278.271z"/>
                    </g>
                    <g opacity="0.9">
                        <path fill="#849974" d="M397.35,177.767v57.596h-10.175v-57.596h-10.847v-9.6h31.87v9.6H397.35z"/>
                        <path fill="#849974" d="M436.9,235.363v-29.278h-12.095v29.278H414.63v-67.195h10.175v28.318H436.9v-28.318h10.175v67.195
                            H436.9z"/>
                        <path fill="#849974" d="M468.197,177.575v19.006h14.878v9.407h-14.878v19.967h18.43v9.407h-28.605v-67.195h28.605v9.408
                            H468.197z"/>
                    </g>
                </g>
                <g>
                    <g>
                        <line fill="#849974" x1="423.721" y1="439.827" x2="835.366" y2="439.827"/>
                        <polygon fill="#849974" points="423.721,436.827 835.366,439.827 423.721,442.827"/>
                    </g>
                    <g>
                        <line fill="#849974" x1="437.76" y1="439.827" x2="25.367" y2="439.827"/>
                        <polygon fill="#849974" points="437.76,442.827 25.367,439.827 437.76,436.827"/>
                    </g>
                </g>
                <g>
                    <g>
                        <line fill="#849974" x1="363.025" y1="218.976" x2="25.367" y2="218.976"/>
                        <polygon fill="#849974" points="363.025,221.976 25.367,218.976 363.025,215.976"/>
                    </g>
                    <g>
                        <line fill="#849974" x1="506.452" y1="218.976" x2="845.366" y2="218.976"/>
                        <polygon fill="#849974" points="506.452,215.976 845.366,218.976 506.452,221.976"/>
                    </g>
                </g>
            </g>
        </g>
    </g>
</svg>